<?xml version="1.0" standalone="no"?><!DOCTYPE svg PUBLIC "-//W3C//DTD SVG 1.1//EN" "http://www.w3.org/Graphics/SVG/1.1/DTD/svg11.dtd"><svg t="1564570261504" class="icon" viewBox="0 0 1024 1024" version="1.1" xmlns="http://www.w3.org/2000/svg" p-id="3437" xmlns:xlink="http://www.w3.org/1999/xlink" width="200" height="200"><defs><style type="text/css"></style></defs><path d="M662.895094 363.979834c49.92483 49.92483 130.863336 49.92483 180.788166 0 49.92483-49.92483 49.92483-130.8672 0-180.79203-49.92483-49.92483-130.8672-49.92483-180.788166 0-49.92483 49.92483-49.92483 130.8672 0 180.79203z m40.983185-40.987049c-27.288634-27.288634-27.288634-71.529298 0-98.817932 27.288634-27.288634 71.529298-27.288634 98.817932 0 27.288634 27.288634 27.288634 71.529298 0 98.817932-27.288634 27.288634-71.529298 27.288634-98.817932 0z" p-id="3438"></path><path d="M946.705389 85.177479l16.650626 328.232574-538.129389 538.129389c-17.365494 17.365494-45.496513 17.369358-62.869735 0L72.483743 661.658566c-17.36163-17.357766-17.357766-45.515834 0-62.869736L610.342642 60.926068l336.358883 24.251411z m-373.431547-69.148981L31.49283 557.805645c-39.993962 39.990098-39.993962 104.846008 0 144.843834l289.873147 289.873147c40.009419 40.009419 104.842143 40.001691 144.843834 0L1007.986958 450.753208c8.817992-8.814128 14.146657-22.709615 13.5168-35.163774l-18.211743-358.940981a28.981132 28.981132 0 0 0-26.855849-27.435472L609.005645 2.716498c-12.620317-0.908075-26.778566 4.351034-35.739532 13.312z" p-id="3439"></path></svg>